<?xml version="1.0" encoding="UTF-8" standalone="no"?>
<!-- Created with Inkscape (http://www.inkscape.org/) -->

<svg
   xmlns:dc="http://purl.org/dc/elements/1.1/"
   xmlns:cc="http://creativecommons.org/ns#"
   xmlns:rdf="http://www.w3.org/1999/02/22-rdf-syntax-ns#"
   xmlns:svg="http://www.w3.org/2000/svg"
   xmlns="http://www.w3.org/2000/svg"
   xmlns:sodipodi="http://sodipodi.sourceforge.net/DTD/sodipodi-0.dtd"
   xmlns:inkscape="http://www.inkscape.org/namespaces/inkscape"
   width="16"
   height="16"
   viewBox="0 0 4.2333332 4.2333335"
   version="1.1"
   id="svg8"
   inkscape:version="0.92.4 (5da689c313, 2019-01-14)"
   sodipodi:docname="tile_breaker.svg">
  <defs
     id="defs2" />
  <sodipodi:namedview
     id="base"
     pagecolor="#ffffff"
     bordercolor="#666666"
     borderopacity="1.0"
     inkscape:pageopacity="0.0"
     inkscape:pageshadow="2"
     inkscape:zoom="32"
     inkscape:cx="9.3324997"
     inkscape:cy="7.0447795"
     inkscape:document-units="px"
     inkscape:current-layer="layer1"
     showgrid="false"
     units="px"
     inkscape:pagecheckerboard="true"
     inkscape:window-width="1366"
     inkscape:window-height="705"
     inkscape:window-x="-8"
     inkscape:window-y="-8"
     inkscape:window-maximized="1" />
  <metadata
     id="metadata5">
    <rdf:RDF>
      <cc:Work
         rdf:about="">
        <dc:format>image/svg+xml</dc:format>
        <dc:type
           rdf:resource="http://purl.org/dc/dcmitype/StillImage" />
        <dc:title></dc:title>
      </cc:Work>
    </rdf:RDF>
  </metadata>
  <g
     inkscape:label="Layer 1"
     inkscape:groupmode="layer"
     id="layer1"
     transform="translate(0,-292.76665)">
    <rect
       style="opacity:1;vector-effect:none;fill-opacity:1;fill-rule:evenodd;stroke-width:0.21930733;stroke-linecap:butt;stroke-linejoin:round;stroke-miterlimit:4;stroke-dasharray:none;stroke-dashoffset:0;stroke-opacity:1;paint-order:normal;fill:#ffffff"
       id="rect826"
       width="1.7197917"
       height="1.7197917"
       x="0.26458335"
       y="295.01562"
       ry="0.35340413" />
    <path
       style="opacity:1;vector-effect:none;fill:#ffffff;fill-opacity:1;fill-rule:evenodd;stroke-width:0.8288781;stroke-linecap:butt;stroke-linejoin:round;stroke-miterlimit:4;stroke-dasharray:none;stroke-dashoffset:0;stroke-opacity:1;paint-order:normal"
       d="M 9.8359375 8.5 C 9.0959593 8.5 8.5 9.0959593 8.5 9.8359375 L 8.5 13.664062 C 8.5 14.404041 9.0959593 15 9.8359375 15 L 13.664062 15 C 14.404041 15 15 14.404041 15 13.664062 L 15 9.8359375 C 15 9.0959593 14.404041 8.5 13.664062 8.5 L 9.8359375 8.5 z M 10.179688 9.3085938 L 12.1875 9.3085938 C 12.666667 9.3085938 13.052083 9.4427083 13.34375 9.7109375 C 13.635417 9.9765625 13.78125 10.292969 13.78125 10.660156 C 13.78125 10.834635 13.747396 10.998698 13.679688 11.152344 C 13.611979 11.30599 13.509115 11.447917 13.371094 11.578125 C 13.623698 11.729167 13.8125 11.90625 13.9375 12.109375 C 14.065104 12.309896 14.128906 12.53776 14.128906 12.792969 C 14.128906 12.996094 14.083333 13.184896 13.992188 13.359375 C 13.924479 13.492187 13.841146 13.597656 13.742188 13.675781 C 13.609375 13.785156 13.446615 13.875 13.253906 13.945312 C 13.061198 14.013021 12.820312 14.046875 12.53125 14.046875 L 10.179688 14.046875 C 9.9869792 14.046875 9.8489583 14.010417 9.765625 13.9375 C 9.6848958 13.861979 9.6445313 13.764323 9.6445312 13.644531 C 9.6445312 13.527344 9.6861979 13.432292 9.7695312 13.359375 C 9.8528646 13.283854 9.9895833 13.246094 10.179688 13.246094 L 10.304688 13.246094 L 10.304688 10.113281 L 10.179688 10.113281 C 9.9869792 10.113281 9.8489583 10.076823 9.765625 10.003906 C 9.6848958 9.9283854 9.6445313 9.8307292 9.6445312 9.7109375 C 9.6445312 9.5911458 9.6848958 9.4947917 9.765625 9.421875 C 9.8489583 9.3463542 9.9869792 9.3085938 10.179688 9.3085938 z M 11.105469 10.113281 L 11.105469 11.277344 L 11.984375 11.277344 C 12.299479 11.277344 12.561198 11.197917 12.769531 11.039062 C 12.910156 10.932292 12.980469 10.799479 12.980469 10.640625 C 12.980469 10.5 12.914062 10.377604 12.78125 10.273438 C 12.648438 10.166667 12.4375 10.113281 12.148438 10.113281 L 11.105469 10.113281 z M 11.105469 12.078125 L 11.105469 13.246094 L 12.488281 13.246094 C 12.813802 13.246094 13.042969 13.197917 13.175781 13.101562 C 13.277344 13.028646 13.328125 12.924479 13.328125 12.789062 C 13.328125 12.627604 13.227865 12.46875 13.027344 12.3125 C 12.826823 12.15625 12.539062 12.078125 12.164062 12.078125 L 11.105469 12.078125 z "
       transform="matrix(0.26458333,0,0,0.26458333,0,292.76665)"
       id="rect830" />
    <path
       style="opacity:1;vector-effect:none;fill:#ffffff;fill-opacity:1;fill-rule:evenodd;stroke-width:0.8288781;stroke-linecap:butt;stroke-linejoin:round;stroke-miterlimit:4;stroke-dasharray:none;stroke-dashoffset:0;stroke-opacity:1;paint-order:normal"
       d="M 2.3359375 1 C 1.5959593 1 1 1.5959593 1 2.3359375 L 1 6.1640625 C 1 6.9040407 1.5959593 7.5 2.3359375 7.5 L 6.1640625 7.5 C 6.9040407 7.5 7.5 6.9040407 7.5 6.1640625 L 7.5 2.3359375 C 7.5 1.5959593 6.9040407 1 6.1640625 1 L 2.3359375 1 z M 2.203125 1.8710938 L 6.3515625 1.875 L 6.3515625 3.4335938 C 6.3515625 3.6263021 6.3138021 3.7643229 6.2382812 3.8476562 C 6.1653646 3.9283854 6.0690104 3.96875 5.9492188 3.96875 C 5.8320313 3.96875 5.7356771 3.9283854 5.6601562 3.8476562 C 5.5872396 3.7643229 5.5507813 3.6263021 5.5507812 3.4335938 L 5.5507812 2.6757812 L 4.671875 2.6757812 L 4.671875 5.8085938 L 5.2109375 5.8085938 C 5.4036458 5.8085938 5.5403646 5.8463542 5.6210938 5.921875 C 5.7044271 5.9947917 5.7460937 6.0911458 5.7460938 6.2109375 C 5.7460938 6.328125 5.7044271 6.4244792 5.6210938 6.5 C 5.5403646 6.5729167 5.4036458 6.609375 5.2109375 6.609375 L 3.3359375 6.609375 C 3.1432292 6.609375 3.0052083 6.5729167 2.921875 6.5 C 2.8411458 6.4244792 2.8007812 6.3268229 2.8007812 6.2070312 C 2.8007812 6.0898438 2.8411458 5.9947917 2.921875 5.921875 C 3.0052083 5.8463542 3.1432292 5.8085938 3.3359375 5.8085938 L 3.8710938 5.8085938 L 3.8710938 2.6757812 L 3.0039062 2.6757812 L 3.0039062 3.4335938 C 3.0039062 3.6263021 2.9661458 3.7643229 2.890625 3.8476562 C 2.8177083 3.9283854 2.7213542 3.96875 2.6015625 3.96875 C 2.484375 3.96875 2.3880208 3.9283854 2.3125 3.8476562 C 2.2395833 3.7643229 2.203125 3.6263021 2.203125 3.4335938 L 2.203125 1.8710938 z "
       transform="matrix(0.26458333,0,0,0.26458333,0,292.76665)"
       id="rect832" />
    <rect
       style="opacity:1;vector-effect:none;fill-opacity:1;fill-rule:evenodd;stroke-width:0.21930732;stroke-linecap:butt;stroke-linejoin:round;stroke-miterlimit:4;stroke-dasharray:none;stroke-dashoffset:0;stroke-opacity:1;paint-order:normal;fill:#ffffff"
       id="rect834"
       width="1.7197917"
       height="1.7197917"
       x="2.2489583"
       y="293.03122"
       ry="0.35340413" />
  </g>
</svg>
